<svg width="44.989014" height="31.934570" viewBox="0 0 44.989 31.9346" fill="none" xmlns="http://www.w3.org/2000/svg" xmlns:xlink="http://www.w3.org/1999/xlink">
	<desc>
			Created with Pixso.
	</desc>
	<defs/>
	<path id="Forma 1" d="M30.2581 27.2429L14.781 27.2429C14.5739 28.5509 13.9067 29.742 12.8997 30.6021C11.8927 31.4621 10.6118 31.9346 9.28748 31.9346C7.96326 31.9346 6.68237 31.4621 5.67529 30.6021C4.66833 29.742 4.00122 28.5509 3.79407 27.2429L1.85706 27.2429C1.36218 27.2397 0.888794 27.0404 0.540771 26.6887C0.192627 26.337 -0.00183105 25.8618 0 25.3669L0 1.87695C-0.0020752 1.38196 0.192261 0.906342 0.540405 0.554443C0.88855 0.202545 1.36206 0.00317383 1.85706 0L27.4081 0C27.903 0.00317383 28.3763 0.202515 28.7244 0.554443C29.0723 0.906372 29.2665 1.38205 29.264 1.87695L29.264 3.78198L36.385 3.78198C36.4653 3.78165 36.5454 3.79208 36.623 3.81299C38.923 4.013 40.0801 5.21289 41.3 7.2749L44.859 13.3689C44.9438 13.5135 44.9888 13.6782 44.989 13.8459L44.989 26.304C44.9901 26.5515 44.8928 26.7892 44.7186 26.9651C44.5444 27.141 44.3075 27.2406 44.0601 27.2419L41.246 27.2419C41.0388 28.5499 40.3717 29.741 39.3647 30.6011C38.3577 31.4611 37.0768 31.9336 35.7526 31.9336C34.4282 31.9336 33.1473 31.4611 32.1404 30.6011C31.1333 29.741 30.4662 28.5499 30.259 27.2419L30.2581 27.2429ZM32.036 26.304C32.0439 27.0369 32.2684 27.7511 32.6814 28.3567C33.0944 28.9623 33.6772 29.4322 34.3566 29.7073C35.036 29.9824 35.7816 30.0503 36.4996 29.9026C37.2175 29.7549 37.8757 29.3979 38.3914 28.877C38.907 28.356 39.257 27.6941 39.3972 26.9746C39.5375 26.2552 39.4617 25.5103 39.1796 24.8337C38.8973 24.1572 38.4214 23.5794 37.8115 23.1729C37.2015 22.7663 36.485 22.5491 35.7521 22.5488C34.7617 22.5552 33.8142 22.9543 33.1177 23.6582C32.421 24.3622 32.032 25.3136 32.036 26.304ZM5.57202 26.304C5.57996 27.0369 5.80444 27.7511 6.21741 28.3567C6.63037 28.9623 7.21326 29.4322 7.89258 29.7073C8.57202 29.9824 9.31763 30.0503 10.0356 29.9026C10.7535 29.7549 11.4117 29.3979 11.9274 28.877C12.443 28.356 12.793 27.6941 12.9332 26.9746C13.0735 26.2552 12.9977 25.5103 12.7156 24.8337C12.4333 24.1572 11.9574 23.5794 11.3475 23.1729C10.7375 22.7663 10.021 22.5491 9.28796 22.5488C8.29749 22.5549 7.34985 22.9537 6.65295 23.6577C5.95618 24.3617 5.56702 25.3134 5.57104 26.304L5.57202 26.304ZM41.244 25.366L43.13 25.366L43.13 19.7478L40.394 19.7478C40.2714 19.7473 40.1501 19.7227 40.0371 19.6753C39.924 19.6279 39.8214 19.5586 39.7351 19.4714C39.6488 19.3843 39.5806 19.281 39.5342 19.1675C39.4879 19.054 39.4644 18.9324 39.465 18.8098L39.465 16.9629C39.4647 16.2422 39.7402 15.5488 40.235 15.0249L33.8561 15.0249C33.7788 15.0248 33.7019 15.015 33.6271 14.9958C32.9222 14.933 32.2667 14.6081 31.7902 14.0852C31.3135 13.5623 31.0505 12.8794 31.053 12.1719L31.053 7.47192C31.0524 7.34927 31.0759 7.22757 31.1222 7.11401C31.1686 7.00046 31.2368 6.89725 31.323 6.81006C31.4093 6.72287 31.512 6.6535 31.625 6.60596C31.738 6.55841 31.8594 6.5336 31.9821 6.53296L38.465 6.53296C38.1207 6.21429 37.7134 5.97122 37.2693 5.81982C36.8252 5.66843 36.3542 5.61188 35.887 5.65381L29.264 5.65381L29.264 25.3618L30.2581 25.3618C30.4652 24.0538 31.1323 22.8627 32.1394 22.0027C33.1464 21.1426 34.4272 20.6702 35.7515 20.6702C37.0758 20.6702 38.3567 21.1426 39.3636 22.0027C40.3707 22.8627 41.0378 24.0538 41.245 25.3618L41.244 25.366ZM14.78 25.366L27.407 25.366L27.407 1.87598L1.85706 1.87598L1.85706 25.366L3.79407 25.366C4.00122 24.058 4.66833 22.8666 5.67529 22.0066C6.68237 21.1465 7.96326 20.6741 9.28748 20.6741C10.6118 20.6741 11.8927 21.1465 12.8997 22.0066C13.9067 22.8666 14.5739 24.058 14.781 25.366L14.78 25.366ZM41.322 16.9658L41.322 17.875L43.13 17.875L43.13 16.0278L42.251 16.0278C42.0042 16.0294 41.7679 16.1288 41.5941 16.304C41.4202 16.4792 41.3228 16.716 41.323 16.9629L41.322 16.9658ZM32.9091 12.1738C32.908 12.4263 33.0071 12.6691 33.1846 12.8486C33.3621 13.0282 33.6035 13.13 33.8561 13.1318C33.9199 13.1317 33.9836 13.1384 34.046 13.1519L42.571 13.1519L39.8051 8.41602L32.905 8.41602L32.9091 12.1738ZM33.0021 26.3059C32.9991 25.5734 33.2869 24.8695 33.8022 24.3489C34.3176 23.8282 35.0184 23.5333 35.751 23.5288C35.9998 23.5288 36.2384 23.6278 36.4143 23.8037C36.5902 23.9796 36.689 24.218 36.689 24.4668C36.689 24.7156 36.5902 24.9542 36.4143 25.1301C36.2384 25.306 35.9998 25.4048 35.751 25.4048C35.5726 25.4032 35.3979 25.4548 35.2489 25.5527C35.0999 25.6507 34.9833 25.7905 34.9138 25.9548C34.8445 26.1191 34.8256 26.3005 34.8594 26.4756C34.8932 26.6507 34.9783 26.8118 35.1038 26.9385C35.2294 27.0652 35.3896 27.1516 35.5645 27.187C35.7393 27.2224 35.9207 27.2051 36.0856 27.1372C36.2505 27.0693 36.3915 26.9538 36.4907 26.8057C36.59 26.6575 36.6431 26.4833 36.6431 26.3049C36.6431 26.0587 36.7408 25.8226 36.9149 25.6484C37.0891 25.4743 37.3253 25.3765 37.5715 25.3765C37.8177 25.3765 38.054 25.4743 38.228 25.6484C38.4022 25.8226 38.5 26.0587 38.5 26.3049C38.5 27.0343 38.2103 27.7338 37.6946 28.2495C37.1788 28.7652 36.4794 29.0549 35.75 29.0549C35.0206 29.0549 34.3212 28.7652 33.8054 28.2495C33.2898 27.7338 33 27.0343 33 26.3049L33.0021 26.3059ZM6.53796 26.3059C6.53503 25.5734 6.82288 24.8695 7.33826 24.3489C7.85364 23.8282 8.55444 23.5333 9.28699 23.5288C9.53577 23.5288 9.77441 23.6278 9.95032 23.8037C10.1262 23.9796 10.225 24.218 10.225 24.4668C10.225 24.7156 10.1262 24.9542 9.95032 25.1301C9.77441 25.306 9.53577 25.4048 9.28699 25.4048C9.10864 25.4032 8.93384 25.4548 8.78479 25.5527C8.63574 25.6507 8.51917 25.7905 8.44983 25.9548C8.38049 26.1191 8.36157 26.3005 8.39539 26.4756C8.4292 26.6507 8.51428 26.8118 8.63977 26.9385C8.76538 27.0652 8.92566 27.1516 9.10046 27.187C9.27527 27.2224 9.45667 27.2051 9.62158 27.1372C9.7865 27.0693 9.92749 26.9538 10.0267 26.8057C10.126 26.6575 10.1791 26.4833 10.1791 26.3049C10.1791 26.0587 10.2769 25.8226 10.4509 25.6484C10.6251 25.4743 10.8613 25.3765 11.1075 25.3765C11.3538 25.3765 11.59 25.4743 11.764 25.6484C11.9382 25.8226 12.036 26.0587 12.036 26.3049C12.036 27.0343 11.7463 27.7338 11.2306 28.2495C10.7148 28.7652 10.0154 29.0549 9.28601 29.0549C8.55664 29.0549 7.85718 28.7652 7.34143 28.2495C6.82581 27.7338 6.53601 27.0343 6.53601 26.3049L6.53796 26.3059ZM4.68005 5.65991C4.43127 5.65991 4.19263 5.56116 4.01672 5.38525C3.84082 5.20935 3.74207 4.9707 3.74207 4.72192C3.74207 4.47314 3.84082 4.2345 4.01672 4.05859C4.19263 3.88269 4.43127 3.78394 4.68005 3.78394L24.5801 3.78394C24.8289 3.78394 25.0674 3.88269 25.2433 4.05859C25.4192 4.2345 25.5181 4.47314 25.5181 4.72192C25.5181 4.9707 25.4192 5.20935 25.2433 5.38525C25.0674 5.56116 24.8289 5.65991 24.5801 5.65991L4.68005 5.65991Z" fill="#F16D7F" fill-opacity="1.000000" fill-rule="nonzero"/>
</svg>
