<!-- icon666.com - MILLIONS vector ICONS FREE --><svg id="Layer_1" viewBox="0 0 512 512" xmlns="http://www.w3.org/2000/svg" data-name="Layer 1"><g fill-rule="evenodd"><path d="m222.763 289.208a46.947 46.947 0 0 0 66.466 0l209-208.957a47.011 47.011 0 1 0 -66.459-66.509l-175.77 175.809-175.763-175.809a47.017 47.017 0 0 0 -66.474 66.509zm-209 0a46.991 46.991 0 0 1 66.474-66.438l175.763 175.738 175.77-175.738a46.986 46.986 0 1 1 66.459 66.438l-209 209.028a46.944 46.944 0 0 1 -66.466 0z" fill="#fcbe00" style="fill: rgb(243, 156, 18);"></path><path d="m234.077 277.893a30.947 30.947 0 0 0 43.841 0l209-208.957a31.011 31.011 0 0 0 -43.831-43.882l-187.082 187.128-187.082-187.128a31.017 31.017 0 0 0 -43.846 43.882zm-209 0a30.991 30.991 0 1 1 43.846-43.81l187.08 187.049 187.08-187.049a30.986 30.986 0 1 1 43.831 43.81l-209 209.029a30.947 30.947 0 0 1 -43.837 0z" fill="#ffd92e"></path></g></svg>