<!-- icon666.com - MILLIONS vector ICONS FREE --><svg enable-background="new 0 0 512 512" viewBox="0 0 512 512" xmlns="http://www.w3.org/2000/svg" xmlns:xlink="http://www.w3.org/1999/xlink"><linearGradient id="lg1"><stop offset="0" stop-color="#fe652b"></stop><stop offset="1" stop-color="#ffff49"></stop></linearGradient><linearGradient id="SVGID_1_" gradientUnits="userSpaceOnUse" x1="256" x2="256" xlink:href="#lg1" y1="496.128" y2="239.851"></linearGradient><linearGradient id="SVGID_2_" gradientUnits="userSpaceOnUse" x1="256" x2="256" xlink:href="#lg1" y1="272.15" y2="15.872"></linearGradient><g id="_x34_0_Down"><g><path d="m74.308 382.025v-142.174l181.735 114.188 181.649-114.188v142.174l-181.649 114.103z" fill="url(#SVGID_1_)"></path><path d="m74.308 158.047v-142.175l181.735 114.189 181.649-114.189v142.175l-181.649 114.103z" fill="url(#SVGID_2_)"></path><g fill="#07028f"><path d="m445.438 382.026v-142.175c0-2.822-1.536-5.416-4.002-6.778-2.474-1.377-5.484-1.278-7.867.219l-177.524 111.6-177.614-111.599c-2.383-1.49-5.401-1.589-7.867-.219-2.474 1.362-4.002 3.956-4.002 6.778v142.175c0 2.663 1.369 5.144 3.631 6.558l181.737 114.103c1.256.794 2.685 1.188 4.115 1.188s2.859-.393 4.123-1.188l181.647-114.103c2.254-1.415 3.623-3.896 3.623-6.559zm-15.492-4.281-173.901 109.239-173.991-109.239v-123.877l169.869 106.728c2.527 1.589 5.719 1.589 8.245 0l169.778-106.728z" fill="#07028f" style="fill: rgb(216, 216, 228);"></path><path d="m445.438 15.874c0-2.822-1.536-5.416-4.002-6.778-2.458-1.377-5.484-1.278-7.867.219l-177.524 111.6-177.614-111.6c-2.383-1.49-5.401-1.589-7.867-.219-2.474 1.362-4.002 3.956-4.002 6.778v142.175c0 2.663 1.369 5.144 3.631 6.558l181.737 114.103c1.256.794 2.685 1.188 4.115 1.188s2.859-.393 4.123-1.188l181.647-114.103c2.254-1.415 3.623-3.896 3.623-6.558zm-15.492 137.893-173.901 109.239-173.991-109.239v-123.876l169.869 106.728c2.527 1.589 5.719 1.589 8.245 0l169.778-106.728z" fill="#07028f" style="fill: rgb(216, 216, 228);"></path></g></g></g></svg>