<?xml version="1.0" encoding="UTF-8"?>
<!DOCTYPE svg PUBLIC "-//W3C//DTD SVG 1.1//EN" "http://www.w3.org/Graphics/SVG/1.1/DTD/svg11.dtd">
<!-- Creator: CorelDRAW 2020 (64-Bit) -->
<svg xmlns="http://www.w3.org/2000/svg" xml:space="preserve" width="210mm" height="297mm" version="1.1" style="shape-rendering:geometricPrecision; text-rendering:geometricPrecision; image-rendering:optimizeQuality; fill-rule:evenodd; clip-rule:evenodd"
viewBox="0 0 21000 29700"
 xmlns:xlink="http://www.w3.org/1999/xlink"
 xmlns:xodm="http://www.corel.com/coreldraw/odm/2003"
 enable-background="new 0 0 512 512">
 <defs>
  <style type="text/css">
   <![CDATA[
    .fil0 {fill:#E6D519;fill-rule:nonzero}
    .fil1 {fill:#EDCF35;fill-rule:nonzero}
    .fil2 {fill:white;fill-rule:nonzero}
   ]]>
  </style>
 </defs>
 <g id="Слой_x0020_1">
  <metadata id="CorelCorpID_0Corel-Layer"/>
  <g id="_340_Down">
   <g>
    <polygon class="fil0" points="17978.87,9719.66 17948.7,15550.94 10519.07,10828.94 3044.48,15473.82 3074.65,9642.54 10549.22,5001.14 "/>
    <polygon class="fil1" points="17931.34,18906.12 17901.17,24737.45 10471.53,20015.41 2996.95,24660.33 3027.12,18829.01 10501.69,14187.61 "/>
    <g>
     <path class="fil2" d="M2756.95 9640.85l-30.17 5831.32c-0.6,115.75 61.85,222.46 162.7,278.85 101.17,57 224.65,53.58 322.71,-7.32l7304.84 -4539.6 7261.17 4614.93c97.43,61.62 221.19,66.32 322.62,10.65 101.76,-55.33 164.98,-161.41 165.58,-277.15l30.17 -5831.32c0.57,-109.22 -55.06,-211.27 -147.54,-269.75l-7429.74 -4718.51c-51.35,-32.84 -109.88,-49.3 -168.53,-49.6 -58.65,-0.31 -117.34,15.51 -169.36,47.85l-7474.48 4641.4c-92.75,57.56 -149.43,159.03 -149.99,268.25l0.02 0zm634.5 178.87l7155.75 -4443.54 7113.07 4517.37 -26.29 5080.82 -6944.54 -4413.51c-103.31,-65.7 -234.23,-66.38 -338.16,-1.75l-6986.11 4341.44 26.28 -5080.83z"/>
     <path class="fil2" d="M2679.25 24658.61c-0.6,115.75 61.85,222.46 162.7,278.84 100.52,57 224.65,53.59 322.71,-7.31l7304.84 -4539.6 7261.17 4614.97c97.43,61.61 221.19,66.31 322.62,10.65 101.76,-55.34 164.98,-161.41 165.58,-277.15l30.17 -5831.32c0.56,-109.22 -55.06,-211.27 -147.54,-269.75l-7429.74 -4718.51c-51.35,-32.84 -109.88,-49.3 -168.53,-49.61 -58.65,-0.3 -117.34,15.52 -169.36,47.86l-7474.48 4641.4c-92.75,57.56 -149.43,159.03 -149.99,268.2l-30.15 5831.33zm664.67 -5652.41l7155.75 -4443.55 7113.07 4517.38 -26.29 5080.78 -6944.54 -4413.51c-103.31,-65.71 -234.23,-66.38 -338.16,-1.75l-6986.11 4341.43 26.28 -5080.78z"/>
    </g>
   </g>
  </g>
 </g>
</svg>
